<svg width="20" height="20" viewBox="0 0 20 20" fill="none" xmlns="http://www.w3.org/2000/svg">
<g id="star 1" clip-path="url(#clip0_1_1624)">
<path id="Vector" d="M19.1058 9.12214C19.8686 8.33356 19.4477 6.95966 18.3937 6.79731L14.2956 6.16575C13.8769 6.1012 13.5151 5.82227 13.3279 5.42005L11.4952 1.48145C11.0237 0.468422 9.66174 0.468422 9.19042 1.48145L7.35768 5.42005C7.17051 5.82227 6.80868 6.1012 6.39002 6.16575L2.29193 6.79731C1.2378 6.95966 0.816985 8.33356 1.57963 9.12214L4.5452 12.1879C4.84804 12.501 4.98615 12.9521 4.91479 13.3943L4.21473 17.7232C4.03461 18.8366 5.1365 19.6858 6.07927 19.16L9.74475 17.1162C10.1191 16.9075 10.5664 16.9075 10.9407 17.1162L14.6062 19.16C15.549 19.6856 16.6509 18.8366 16.4709 17.7232L15.7708 13.3943C15.6993 12.9522 15.8376 12.501 16.1404 12.1879L19.1058 9.12214Z" fill="#F4E64C"/>
<path id="Vector_2" d="M5.68794 18.1145L6.38801 13.7856C6.45951 13.3434 6.32125 12.8923 6.01841 12.5792L3.05299 9.5134C2.2902 8.72482 2.71116 7.35092 3.76514 7.18857L7.86324 6.55701C8.28189 6.49246 8.64372 6.21368 8.8309 5.81131L10.6636 1.87271C10.8144 1.54877 11.0564 1.32904 11.331 1.21231C10.7633 0.479431 9.61527 0.569152 9.19042 1.48209L7.35768 5.42068C7.17051 5.82306 6.80868 6.10184 6.39002 6.16638L2.29193 6.79794C1.2378 6.9603 0.816985 8.3342 1.57963 9.12277L4.5452 12.1886C4.84804 12.5017 4.98615 12.9527 4.91479 13.3949L4.21473 17.7238C4.0418 18.7929 5.05061 19.6175 5.9659 19.2163C5.73887 18.9296 5.61889 18.5417 5.68794 18.1145Z" fill="#FAB659"/>
<path id="Vector_3" d="M6.78076 9.1084V9.7392C6.78076 9.90109 6.90434 10.0322 7.05699 10.0322C7.20949 10.0322 7.33322 9.90109 7.33322 9.7392V9.1084C7.33322 8.94666 7.20949 8.81543 7.05699 8.81543C6.90434 8.81543 6.78076 8.94666 6.78076 9.1084Z" fill="black"/>
<path id="Vector_4" d="M13.905 9.7392V9.1084C13.905 8.94666 13.7813 8.81543 13.6288 8.81543C13.4763 8.81543 13.3525 8.94666 13.3525 9.1084V9.7392C13.3525 9.90109 13.4763 10.0322 13.6288 10.0322C13.7813 10.0322 13.905 9.90109 13.905 9.7392Z" fill="black"/>
<path id="Vector_5" d="M10.3429 10.3689C10.7387 10.3689 11.1101 10.1938 11.3619 9.88814C11.4623 9.76637 11.4505 9.58128 11.3357 9.47478C11.2209 9.36827 11.0464 9.38063 10.946 9.50255C10.7991 9.68077 10.5793 9.783 10.3429 9.783C10.1065 9.783 9.88667 9.68077 9.73979 9.50255C9.63951 9.38078 9.465 9.36827 9.35005 9.47478C9.23524 9.58128 9.22344 9.76637 9.32386 9.88814C9.57563 10.1938 9.9471 10.3689 10.3429 10.3689Z" fill="black"/>
<path id="Vector_6" d="M4.64255 13.3456L3.94248 17.6747C3.84134 18.3005 4.0793 18.921 4.56371 19.2943C5.04797 19.6675 5.67797 19.7157 6.20798 19.4203L9.87346 17.3766C10.1674 17.2125 10.5184 17.2125 10.8123 17.3766C10.8123 17.3766 14.4777 19.4203 14.4778 19.4203C14.9914 19.7067 15.6401 19.6657 16.1221 19.2943C16.6064 18.921 16.8445 18.3005 16.7432 17.6747L16.4239 15.6999C16.398 15.5405 16.2555 15.4333 16.105 15.4607C15.9545 15.4881 15.8536 15.6395 15.8794 15.7989L16.1986 17.7737C16.2651 18.1842 16.1151 18.5754 15.7974 18.8202C15.4797 19.0651 15.0825 19.0955 14.7349 18.9017L11.0694 16.8579C10.6145 16.6042 10.0713 16.6042 9.61637 16.8579L5.95089 18.9017C5.6033 19.0955 5.20608 19.0651 4.88842 18.8202C4.57075 18.5754 4.4207 18.1842 4.48702 17.7737L5.18709 13.4448C5.27398 12.9076 5.10609 12.3596 4.73807 11.9791L1.77266 8.91327C1.49154 8.62259 1.39601 8.21258 1.51729 7.81647C1.63871 7.42035 1.94314 7.14813 2.33173 7.08816L6.42997 6.4566C6.93854 6.37817 7.37806 6.03958 7.60552 5.55069L8.45535 3.72452C8.52282 3.57941 8.46672 3.40378 8.3299 3.33206C8.19293 3.2605 8.02749 3.32001 7.95987 3.46512L7.11004 5.29144C6.96315 5.60715 6.67915 5.82611 6.35041 5.87677L2.25231 6.50833C1.65986 6.59958 1.1769 7.0314 0.99188 7.63534C0.806865 8.23913 0.958359 8.88962 1.38694 9.33273L4.35251 12.3985C4.59032 12.6445 4.6988 12.9985 4.64255 13.3456Z" fill="black"/>
<path id="Vector_7" d="M18.4334 6.50833L14.3351 5.87677C14.0065 5.82611 13.7225 5.6073 13.5755 5.29144L11.7429 1.35269C11.4779 0.783386 10.9414 0.429688 10.3428 0.429688C9.74414 0.429688 9.20765 0.783386 8.94265 1.35269L8.47608 2.3555C8.40861 2.50046 8.46471 2.67624 8.60153 2.7478C8.73835 2.81937 8.90395 2.75986 8.97156 2.61475L9.43813 1.61209C9.61192 1.23856 9.95001 1.01562 10.3428 1.01562C10.7355 1.01562 11.0736 1.23856 11.2474 1.61209L13.0802 5.55069C13.3078 6.03958 13.7471 6.37817 14.2557 6.4566L18.354 7.08817C18.7425 7.14813 19.047 7.42035 19.1684 7.81647C19.2897 8.21259 19.1943 8.62259 18.913 8.91327L15.9476 11.9791C15.5796 12.3596 15.4117 12.9076 15.4986 13.4448C15.4986 13.4448 15.6488 14.3741 15.6491 14.3759C15.6745 14.5326 15.8207 14.642 15.968 14.6152C16.1185 14.5879 16.2194 14.4363 16.1936 14.2769L16.0431 13.3458C15.9869 12.9987 16.0954 12.6445 16.3332 12.3987L19.2987 9.33289C19.7273 8.88977 19.8788 8.23929 19.6938 7.63535C19.5088 7.0314 19.0258 6.59958 18.4334 6.50833Z" fill="black"/>
</g>
<defs>
<clipPath id="clip0_1_1624">
<rect width="18.8571" height="20" fill="white" transform="translate(0.914307)"/>
</clipPath>
</defs>
</svg>
