<svg width="10" height="6" viewBox="0 0 10 6" fill="none" xmlns="http://www.w3.org/2000/svg">
<path id="Vector" d="M5.27983 5.36424L9.06716 1.57685C9.15483 1.48925 9.20312 1.37231 9.20312 1.24763C9.20312 1.12294 9.15483 1.00601 9.06716 0.918408L8.78832 0.639492C8.60662 0.458 8.3113 0.458 8.12988 0.639492L4.94951 3.81986L1.76561 0.635963C1.67794 0.548365 1.56107 0.5 1.43646 0.5C1.3117 0.5 1.19484 0.548365 1.1071 0.635963L0.828323 0.914879C0.740656 1.00255 0.69236 1.11941 0.69236 1.2441C0.69236 1.36878 0.740656 1.48572 0.828323 1.57332L4.61911 5.36424C4.70706 5.45205 4.82448 5.50028 4.9493 5.5C5.07461 5.50028 5.19196 5.45205 5.27983 5.36424Z" fill="#041E42"/>
</svg>
