<svg width="25" height="22" viewBox="0 0 25 22" fill="none" xmlns="http://www.w3.org/2000/svg">
<path d="M16.5291 3.55469C19.3745 3.55469 21.6805 5.68939 21.6805 8.67798C21.6805 14.6551 14.6559 18.0707 12.3144 19.3515C9.97284 18.0707 2.94824 14.6551 2.94824 8.67798C2.94824 5.68939 5.28978 3.55469 8.09961 3.55469C9.84171 3.55469 11.3778 4.40857 12.3144 5.26245C13.2509 4.40857 14.787 3.55469 16.5291 3.55469ZM13.1892 16.8786C14.0143 16.4039 14.7589 15.9317 15.4558 15.4262C18.2478 13.4025 19.8073 11.1909 19.8073 8.67798C19.8073 6.66282 18.3677 5.26245 16.5291 5.26245C15.5213 5.26245 14.4311 5.74916 13.6387 6.46984L12.3144 7.67723L10.99 6.46984C10.1976 5.74916 9.10741 5.26245 8.09961 5.26245C6.28258 5.26245 4.82147 6.67648 4.82147 8.67798C4.82147 11.1918 6.38186 13.4025 9.17204 15.4262C9.86981 15.9317 10.6144 16.4039 11.4396 16.8778C11.7196 17.0392 11.9969 17.1937 12.3144 17.3662C12.6319 17.1937 12.9092 17.0392 13.1892 16.8786Z" fill="white"/>
</svg>
