<svg width="23" height="20" viewBox="0 0 23 20" fill="none" xmlns="http://www.w3.org/2000/svg">
<path d="M11.6 9.16731C12.4802 9.16731 13.3407 8.92298 14.0727 8.46506C14.8045 8.00726 15.375 7.35652 15.7118 6.59516C16.0487 5.83381 16.1369 4.99603 15.9651 4.18777C15.7934 3.37952 15.3695 2.63709 14.747 2.05437C14.1247 1.47166 13.3316 1.07482 12.4683 0.914049C11.6049 0.753274 10.71 0.835791 9.89683 1.15115C9.08356 1.46652 8.38847 2.00057 7.89943 2.68577C7.41039 3.37098 7.14937 4.17657 7.14937 5.00065C7.15078 6.10531 7.62014 7.16435 8.45448 7.94546C9.28883 8.72656 10.42 9.16598 11.6 9.16731ZM11.6 2.50065C12.1281 2.50065 12.6445 2.64727 13.0836 2.92197C13.5227 3.19668 13.865 3.58712 14.0671 4.04394C14.2692 4.50076 14.3221 5.00342 14.2191 5.48837C14.116 5.97333 13.8617 6.41879 13.4882 6.76841C13.1148 7.11805 12.6389 7.35615 12.121 7.45261C11.6029 7.54907 11.066 7.49956 10.578 7.31035C10.0902 7.12113 9.67308 6.8007 9.37965 6.38957C9.08623 5.97846 8.92962 5.49511 8.92962 5.00065C8.92962 4.33761 9.21096 3.70172 9.71175 3.23288C10.2126 2.76404 10.8918 2.50065 11.6 2.50065ZM3.58887 18.334V15.0006C3.59028 13.896 4.05964 12.837 4.89399 12.0558C5.72834 11.2747 6.85955 10.8353 8.03949 10.834H15.1605C16.3404 10.8353 17.4716 11.2747 18.306 12.0558C19.1403 12.837 19.6097 13.896 19.6111 15.0006V18.334C19.6111 18.555 19.5173 18.767 19.3504 18.9232C19.1835 19.0795 18.957 19.1673 18.721 19.1673C18.4849 19.1673 18.2585 19.0795 18.0916 18.9232C17.9247 18.767 17.8309 18.555 17.8309 18.334V15.0006C17.8309 14.3376 17.5495 13.7017 17.0487 13.2329C16.5479 12.7641 15.8687 12.5006 15.1605 12.5006H8.03949C7.33126 12.5006 6.65204 12.7641 6.15125 13.2329C5.65046 13.7017 5.36912 14.3376 5.36912 15.0006V18.334C5.36912 18.555 5.27533 18.767 5.10841 18.9232C4.94147 19.0795 4.71507 19.1673 4.47899 19.1673C4.24291 19.1673 4.01651 19.0795 3.84958 18.9232C3.68265 18.767 3.58887 18.555 3.58887 18.334Z" fill="white"/>
</svg>
