<svg width="21" height="20" viewBox="0 0 21 20" fill="none" xmlns="http://www.w3.org/2000/svg">
<path d="M9.22087 1.60938C5.1043 1.60938 1.75098 4.97548 1.75098 9.10776C1.75098 13.24 5.1043 16.6127 9.22087 16.6127C10.9792 16.6127 12.5963 15.9941 13.8744 14.9671L16.9859 18.0889C17.1429 18.24 17.3526 18.3233 17.5701 18.3211C17.7876 18.3189 17.9956 18.2312 18.1495 18.0769C18.3034 17.9227 18.391 17.714 18.3935 17.4957C18.3961 17.2774 18.3133 17.0667 18.163 16.9089L15.0515 13.7856C16.0754 12.5006 16.6924 10.8748 16.6924 9.10776C16.6924 4.97548 13.3374 1.60938 9.22087 1.60938ZM9.22087 3.27607C12.4401 3.27607 15.0304 5.87623 15.0304 9.10776C15.0304 12.3393 12.4401 14.946 9.22087 14.946C6.00161 14.946 3.41131 12.3393 3.41131 9.10776C3.41131 5.87623 6.00161 3.27607 9.22087 3.27607Z" fill="#443297"/>
</svg>
