<svg width="23" height="20" viewBox="0 0 23 20" fill="none" xmlns="http://www.w3.org/2000/svg">
<g clip-path="url(#clip0_350_1931)">
<path fill-rule="evenodd" clip-rule="evenodd" d="M16.7695 17.5006C16.7695 16.5802 17.5616 15.834 18.5387 15.834C19.5159 15.834 20.308 16.5802 20.308 17.5006C20.308 18.4211 19.5159 19.1673 18.5387 19.1673C17.5616 19.1673 16.7695 18.4211 16.7695 17.5006Z" fill="white"/>
<path fill-rule="evenodd" clip-rule="evenodd" d="M7.03906 17.5006C7.03906 16.5802 7.83117 15.834 8.80828 15.834C9.78542 15.834 10.5775 16.5802 10.5775 17.5006C10.5775 18.4211 9.78542 19.1673 8.80828 19.1673C7.83117 19.1673 7.03906 18.4211 7.03906 17.5006Z" fill="white"/>
<path fill-rule="evenodd" clip-rule="evenodd" d="M0.84668 0.833333C0.84668 0.373096 1.24273 0 1.73129 0H5.26972C5.69135 0 6.05438 0.280321 6.13712 0.669786L6.88009 4.16667H21.1927C21.4563 4.16667 21.7062 4.27744 21.8743 4.4688C22.0423 4.66015 22.111 4.91215 22.0616 5.15611L20.645 12.154C20.5236 12.7295 20.1913 13.2465 19.7061 13.6144C19.2234 13.9805 18.6199 14.1758 18.0005 14.1667H9.41733C8.79788 14.1758 8.19441 13.9805 7.71166 13.6144C7.2267 13.2466 6.89443 12.7299 6.77296 12.1547C6.77291 12.1545 6.77302 12.1549 6.77296 12.1547L5.29519 5.19933C5.28919 5.17632 5.28421 5.15294 5.28029 5.12923L4.54463 1.66667H1.73129C1.24273 1.66667 0.84668 1.29357 0.84668 0.833333H0.84668ZM7.2342 5.83333L8.50813 11.8293C8.54858 12.0212 8.65936 12.1935 8.82108 12.3161C8.9828 12.4387 9.18517 12.5039 9.39274 12.5002L9.40969 12.5H18.0081L18.0251 12.5002C18.2326 12.5039 18.435 12.4387 18.5967 12.3161C18.7577 12.194 18.8682 12.0227 18.9091 11.832L20.1234 5.83333H7.2342Z" fill="white"/>
</g>
<defs>
<clipPath id="clip0_350_1931">
<rect width="21.2306" height="20" fill="white" transform="translate(0.84668)"/>
</clipPath>
</defs>
</svg>
